<?xml version="1.0" encoding="UTF-8" standalone="no"?>
<!-- Created with Inkscape (http://www.inkscape.org/) -->

<svg
   width="1000"
   height="1000"
   viewBox="0 0 264.58333 264.58333"
   version="1.1"
   id="svg1"
   inkscape:version="1.3.2 (091e20e, 2023-11-25, custom)"
   sodipodi:docname="code.svg"
   inkscape:export-filename="code1.png"
   inkscape:export-xdpi="96"
   inkscape:export-ydpi="96"
   xmlns:inkscape="http://www.inkscape.org/namespaces/inkscape"
   xmlns:sodipodi="http://sodipodi.sourceforge.net/DTD/sodipodi-0.dtd"
   xmlns="http://www.w3.org/2000/svg"
   xmlns:svg="http://www.w3.org/2000/svg">
  <sodipodi:namedview
     id="namedview1"
     pagecolor="#ffffff"
     bordercolor="#000000"
     borderopacity="0.25"
     inkscape:showpageshadow="2"
     inkscape:pageopacity="0.0"
     inkscape:pagecheckerboard="0"
     inkscape:deskcolor="#d1d1d1"
     inkscape:document-units="px"
     inkscape:zoom="0.72426347"
     inkscape:cx="445.9703"
     inkscape:cy="546.072"
     inkscape:window-width="1920"
     inkscape:window-height="1009"
     inkscape:window-x="-8"
     inkscape:window-y="-8"
     inkscape:window-maximized="1"
     inkscape:current-layer="layer1" />
  <defs
     id="defs1" />
  <g
     inkscape:label="图层 1"
     inkscape:groupmode="layer"
     id="layer1">
    <path
       id="rect1"
       style="display:inline;fill:#1a1a1a;stroke-width:2.24741"
       inkscape:label="background"
       d="M 90.61514 0 C 40.414628 1.0026517e-14 4.0106149e-14 40.414628 0 90.61514 L 0 173.96819 C 1.0026517e-14 224.1687 40.414628 264.58333 90.61514 264.58333 L 173.96819 264.58333 C 224.1687 264.58333 264.58333 224.1687 264.58333 173.96819 L 264.58333 90.61514 C 264.58333 40.414628 224.1687 4.0106149e-14 173.96819 0 L 90.61514 0 z M 74.95098 74.083332 L 95.249999 74.083332 L 52.049019 132.29166 L 95.249999 190.5 L 74.95098 190.5 L 31.75 132.29166 L 74.95098 74.083332 z M 169.33333 74.083332 L 189.63235 74.083332 L 232.83333 132.29166 L 189.63235 190.5 L 169.33333 190.5 L 212.53431 132.29166 L 169.33333 74.083332 z M 143.40985 94.48157 L 164.25664 94.48157 L 121.17348 170.10176 L 100.32669 170.10176 L 143.40985 94.48157 z " />
  </g>
</svg>
