<?xml version="1.0" encoding="UTF-8" standalone="no"?>
<svg
   t="1706856548813"
   class="icon"
   viewBox="0 0 1024 1024"
   version="1.1"
   p-id="8117"
   width="300"
   height="300"
   id="svg4"
   sodipodi:docname="edit.svg"
   inkscape:version="1.3.2 (091e20e, 2023-11-25, custom)"
   xmlns:inkscape="http://www.inkscape.org/namespaces/inkscape"
   xmlns:sodipodi="http://sodipodi.sourceforge.net/DTD/sodipodi-0.dtd"
   xmlns="http://www.w3.org/2000/svg"
   xmlns:svg="http://www.w3.org/2000/svg">
  <defs
     id="defs4" />
  <sodipodi:namedview
     id="namedview4"
     pagecolor="#ffffff"
     bordercolor="#000000"
     borderopacity="0.25"
     inkscape:showpageshadow="2"
     inkscape:pageopacity="0.0"
     inkscape:pagecheckerboard="0"
     inkscape:deskcolor="#d1d1d1"
     inkscape:zoom="2.71"
     inkscape:cx="149.8155"
     inkscape:cy="150"
     inkscape:window-width="1920"
     inkscape:window-height="1009"
     inkscape:window-x="-8"
     inkscape:window-y="-8"
     inkscape:window-maximized="1"
     inkscape:current-layer="svg4" />
  <path
     id="path1"
     d="M 711.47333 128.38667 A 128 128 0 0 0 635.30667 165.05333 L 590.02667 210.32 L 590.01333 210.30667 L 544.76667 255.55333 L 544.78 255.56667 L 128.62 671.66 A 21.333333 21.333333 0 0 0 122.38667 686.76 L 122.38667 816.25333 A 42.666667 42.666667 0 0 0 165.05333 858.92 L 294.57333 858.92 A 21.333333 21.333333 0 0 0 309.65333 852.69333 L 725.78 436.56667 L 771.02667 391.32 L 816.28 346.06667 A 128 128 0 0 0 816.28 165.05333 L 816.3 165.05333 A 128 128 0 0 0 711.47333 128.38667 z M 718.00667 192.02 A 64 64 0 0 1 771.05333 210.28 L 771.05333 210.32667 L 773.61333 213.05333 A 64 64 0 0 1 771.02667 300.84 L 725.78667 346.08 L 635.25333 255.54667 L 680.51333 210.28 L 683.26667 207.72 A 64 64 0 0 1 718.00667 192.02 z M 590.00667 300.79333 L 680.53333 391.32 L 279.38 792.44667 A 8.533333 8.533333 0 0 1 273.34667 794.96667 L 194.92 794.96667 C 190.20534 794.96667 186.38667 791.148 186.38667 786.43333 L 186.38667 707.96667 A 8.533333 8.533333 0 0 1 188.88667 701.93333 L 590.00667 300.79333 z M 669.86667 667.73333 C 664.17778 667.73333 661.33333 670.57778 661.33333 676.26667 L 661.33333 723.2 C 661.33333 728.88888 664.17778 731.73333 669.86667 731.73333 L 844.8 731.73333 C 850.48888 731.73333 853.33333 728.88888 853.33333 723.2 L 853.33333 676.26667 C 853.33333 670.57778 850.48888 667.73333 844.8 667.73333 L 669.86667 667.73333 z M 499.2 795.73333 C 493.51112 795.73333 490.66667 798.57778 490.66667 804.26667 L 490.66667 851.2 C 490.66667 856.88888 493.51112 859.73333 499.2 859.73333 L 844.8 859.73333 C 850.48888 859.73333 853.33333 856.88888 853.33333 851.2 L 853.33333 804.26667 C 853.33333 798.57778 850.48888 795.73333 844.8 795.73333 L 499.2 795.73333 z " />
</svg>
