<?xml version="1.0" encoding="UTF-8" standalone="no"?>
<svg
   t="1706853811778"
   class="icon"
   viewBox="0 0 1024 1024"
   version="1.1"
   p-id="6270"
   width="300"
   height="300"
   id="svg2"
   sodipodi:docname="folder.svg"
   inkscape:version="1.3.2 (091e20e, 2023-11-25, custom)"
   xmlns:inkscape="http://www.inkscape.org/namespaces/inkscape"
   xmlns:sodipodi="http://sodipodi.sourceforge.net/DTD/sodipodi-0.dtd"
   xmlns="http://www.w3.org/2000/svg"
   xmlns:svg="http://www.w3.org/2000/svg">
  <defs
     id="defs2" />
  <sodipodi:namedview
     id="namedview2"
     pagecolor="#ffffff"
     bordercolor="#000000"
     borderopacity="0.25"
     inkscape:showpageshadow="2"
     inkscape:pageopacity="0.0"
     inkscape:pagecheckerboard="0"
     inkscape:deskcolor="#d1d1d1"
     inkscape:zoom="2.71"
     inkscape:cx="149.8155"
     inkscape:cy="150"
     inkscape:window-width="1920"
     inkscape:window-height="1009"
     inkscape:window-x="-8"
     inkscape:window-y="-8"
     inkscape:window-maximized="1"
     inkscape:current-layer="svg2" />
  <path
     id="path1"
     d="M 42.666667 85.333333 C 17.066692 85.333333 4.7369469e-16 102.40003 0 128 L 0 887.46667 L 0 896 C 3.4979479e-15 918.15316 12.815863 933.87022 32.846667 937.71333 C 32.964285 937.73667 33.075525 937.78427 33.193333 937.80667 C 36.202149 938.3599 39.353489 938.66667 42.666667 938.66667 L 853.33333 938.66667 C 856.16115 938.66667 858.89532 938.40654 861.55333 937.96667 C 863.27473 937.69559 864.8697 937.23277 866.48667 936.79333 C 867.28189 936.56998 868.09999 936.39763 868.87333 936.13333 C 870.80964 935.48908 872.61372 934.67956 874.37333 933.79333 C 874.74007 933.607 875.11343 933.43661 875.47333 933.24 C 877.25826 932.27023 878.92843 931.18001 880.50667 929.96667 C 880.91432 929.65732 881.30475 929.33148 881.7 929.00667 C 883.03282 927.89196 884.30505 926.72841 885.46667 925.44 C 886.43253 924.40539 887.28811 923.26521 888.14667 922.12 C 888.58011 921.51172 889.06712 920.95735 889.46667 920.32 C 892.49943 915.76647 894.80061 910.53026 896 904.53333 L 1024 392.53333 C 1024 379.73335 1024 371.19999 1015.4667 358.4 C 1006.9333 345.60001 994.13332 341.33333 981.33333 341.33333 L 896 341.33333 L 896 213.33333 C 896 187.73336 878.93331 170.66667 853.33333 170.66667 L 384 170.66667 L 384 128 C 384 102.40003 366.93331 85.333333 341.33333 85.333333 L 42.666667 85.333333 z M 85.333333 170.66667 L 298.66667 170.66667 L 298.66667 213.33333 C 298.66667 238.93331 315.73336 256 341.33333 256 L 810.66667 256 L 810.66667 341.33333 L 170.66667 341.33333 C 149.33335 341.33333 132.26666 354.13335 128 375.46667 L 85.333333 546.13333 L 85.333333 170.66667 z M 204.8 426.66667 L 853.33333 426.66667 L 925.86667 426.66667 L 819.2 853.33333 L 98.133333 853.33333 L 204.8 426.66667 z " />
</svg>
