<?xml version="1.0" standalone="no"?><!DOCTYPE svg PUBLIC "-//W3C//DTD SVG 1.1//EN" "http://www.w3.org/Graphics/SVG/1.1/DTD/svg11.dtd"><svg t="1706859283055" class="icon" viewBox="0 0 1024 1024" version="1.1" xmlns="http://www.w3.org/2000/svg" p-id="22058" xmlns:xlink="http://www.w3.org/1999/xlink" width="300" height="300"><path d="M219.008 316.992h586.016q22.016 0 35.008-13.504t12.992-35.488-12.992-35.008-35.008-14.016H219.008q-22.016 0.992-35.008 14.016t-12.992 35.008q0 19.008 12.992 33.504t35.008 15.488z m633.984 49.024H170.976q-42.016 0.992-69.504 28.512T72.96 463.04v390.016q0.992 42.016 28.512 69.504t69.504 28.512h682.016q42.016-0.992 69.504-28.512t28.512-69.504V463.04q-0.992-40.992-28.512-68.512t-69.504-28.512z m0 438.976q0 22.016-12.992 35.008t-35.008 12.992H218.976q-22.016 0-35.008-12.992t-12.992-35.008V512q0-22.016 12.992-35.008t35.008-14.016h586.016q22.016 0.992 35.008 14.016T852.992 512v292.992zM268 171.008h488q22.016-0.992 35.008-14.016t12.992-35.008-12.992-35.488-35.008-13.504H268q-22.016 0-35.008 13.504t-12.992 35.488 12.992 35.008 35.008 14.016z m390.016 439.008h-292q-23.008 0-36 12.992t-12.992 35.488 12.992 35.488 36 12.992h292q23.008 0 36-12.992t12.512-35.488-15.008-35.488-33.504-12.992z" p-id="22059"></path></svg>